<svg width="32" height="32" viewBox="0 0 32 32" fill="none" xmlns="http://www.w3.org/2000/svg">
<rect width="32" height="32" rx="16" fill="#F3F4F6"/>
<mask id="path-2-inside-1_1460_268336" fill="white">
<path fill-rule="evenodd" clip-rule="evenodd" d="M10.2928 10.2931C10.4803 10.1056 10.7346 10.0003 10.9998 10.0003C11.265 10.0003 11.5193 10.1056 11.7068 10.2931L15.9998 14.5861L20.2928 10.2931C20.385 10.1976 20.4954 10.1214 20.6174 10.069C20.7394 10.0166 20.8706 9.98898 21.0034 9.98783C21.1362 9.98668 21.2678 10.012 21.3907 10.0623C21.5136 10.1125 21.6253 10.1868 21.7192 10.2807C21.8131 10.3746 21.8873 10.4862 21.9376 10.6091C21.9879 10.732 22.0132 10.8637 22.012 10.9965C22.0109 11.1293 21.9833 11.2605 21.9309 11.3825C21.8785 11.5045 21.8023 11.6148 21.7068 11.7071L17.4138 16.0001L21.7068 20.2931C21.8889 20.4817 21.9897 20.7343 21.9875 20.9965C21.9852 21.2587 21.88 21.5095 21.6946 21.6949C21.5092 21.8803 21.2584 21.9855 20.9962 21.9878C20.734 21.99 20.4814 21.8892 20.2928 21.7071L15.9998 17.4141L11.7068 21.7071C11.5182 21.8892 11.2656 21.99 11.0034 21.9878C10.7412 21.9855 10.4904 21.8803 10.305 21.6949C10.1196 21.5095 10.0144 21.2587 10.0121 20.9965C10.0098 20.7343 10.1106 20.4817 10.2928 20.2931L14.5858 16.0001L10.2928 11.7071C10.1053 11.5196 10 11.2652 10 11.0001C10 10.7349 10.1053 10.4806 10.2928 10.2931Z"/>
</mask>
<path fill-rule="evenodd" clip-rule="evenodd" d="M10.2928 10.2931C10.4803 10.1056 10.7346 10.0003 10.9998 10.0003C11.265 10.0003 11.5193 10.1056 11.7068 10.2931L15.9998 14.5861L20.2928 10.2931C20.385 10.1976 20.4954 10.1214 20.6174 10.069C20.7394 10.0166 20.8706 9.98898 21.0034 9.98783C21.1362 9.98668 21.2678 10.012 21.3907 10.0623C21.5136 10.1125 21.6253 10.1868 21.7192 10.2807C21.8131 10.3746 21.8873 10.4862 21.9376 10.6091C21.9879 10.732 22.0132 10.8637 22.012 10.9965C22.0109 11.1293 21.9833 11.2605 21.9309 11.3825C21.8785 11.5045 21.8023 11.6148 21.7068 11.7071L17.4138 16.0001L21.7068 20.2931C21.8889 20.4817 21.9897 20.7343 21.9875 20.9965C21.9852 21.2587 21.88 21.5095 21.6946 21.6949C21.5092 21.8803 21.2584 21.9855 20.9962 21.9878C20.734 21.99 20.4814 21.8892 20.2928 21.7071L15.9998 17.4141L11.7068 21.7071C11.5182 21.8892 11.2656 21.99 11.0034 21.9878C10.7412 21.9855 10.4904 21.8803 10.305 21.6949C10.1196 21.5095 10.0144 21.2587 10.0121 20.9965C10.0098 20.7343 10.1106 20.4817 10.2928 20.2931L14.5858 16.0001L10.2928 11.7071C10.1053 11.5196 10 11.2652 10 11.0001C10 10.7349 10.1053 10.4806 10.2928 10.2931Z" fill="#F3F4F6"/>
<path d="M11.7068 10.2931L13.121 8.87887L13.1208 8.87865L11.7068 10.2931ZM15.9998 14.5861L14.5856 16.0003L15.9998 17.4145L17.414 16.0003L15.9998 14.5861ZM20.2928 10.2931L21.707 11.7073L21.7193 11.695L21.7314 11.6825L20.2928 10.2931ZM21.7068 11.7071L20.3174 10.2685L20.3049 10.2806L20.2926 10.2929L21.7068 11.7071ZM17.4138 16.0001L15.9996 14.5859L14.5854 16.0001L15.9996 17.4143L17.4138 16.0001ZM21.7068 20.2931L23.1454 18.9037L23.1333 18.8912L23.121 18.8789L21.7068 20.2931ZM20.2928 21.7071L18.8786 23.1213L18.8909 23.1336L18.9034 23.1457L20.2928 21.7071ZM15.9998 17.4141L17.414 15.9999L15.9998 14.5857L14.5856 15.9999L15.9998 17.4141ZM11.7068 21.7071L13.0962 23.1457L13.1087 23.1336L13.121 23.1213L11.7068 21.7071ZM10.2928 20.2931L8.87857 18.8789L8.86628 18.8912L8.85421 18.9037L10.2928 20.2931ZM14.5858 16.0001L16 17.4143L17.4142 16.0001L16 14.5859L14.5858 16.0001ZM10.2928 11.7071L8.87836 13.1211L8.87857 13.1213L10.2928 11.7071ZM10.2928 10.2931L8.87879 8.87865L8.87836 8.87908L10.2928 10.2931ZM11.7068 11.7075C11.5193 11.895 11.265 12.0003 10.9998 12.0003V8.00029C10.2043 8.00029 9.44137 8.31624 8.87879 8.87865L11.7068 11.7075ZM10.9998 12.0003C10.7346 12.0003 10.4803 11.895 10.2928 11.7075L13.1208 8.87865C12.5582 8.31624 11.7953 8.00029 10.9998 8.00029V12.0003ZM10.2926 11.7073L14.5856 16.0003L17.414 13.1719L13.121 8.87887L10.2926 11.7073ZM17.414 16.0003L21.707 11.7073L18.8786 8.87887L14.5856 13.1719L17.414 16.0003ZM21.7314 11.6825C21.6391 11.778 21.5288 11.8542 21.4068 11.9066L19.828 8.23135C19.462 8.38858 19.1309 8.61713 18.8542 8.90366L21.7314 11.6825ZM21.4068 11.9066C21.2848 11.959 21.1535 11.9866 21.0208 11.9878L20.986 7.98791C20.5877 7.99137 20.194 8.07413 19.828 8.23135L21.4068 11.9066ZM21.0208 11.9878C20.888 11.9889 20.7563 11.9636 20.6334 11.9133L22.1481 8.21119C21.7794 8.06035 21.3843 7.98444 20.986 7.98791L21.0208 11.9878ZM20.6334 11.9133C20.5105 11.863 20.3989 11.7888 20.305 11.6949L23.1334 8.86647C22.8517 8.5848 22.5168 8.36204 22.1481 8.21119L20.6334 11.9133ZM20.305 11.6949C20.2111 11.601 20.1368 11.4894 20.0865 11.3665L23.7887 9.8518C23.6378 9.48311 23.4151 9.14815 23.1334 8.86647L20.305 11.6949ZM20.0865 11.3665C20.0363 11.2436 20.011 11.1119 20.0121 10.9791L24.012 11.0139C24.0154 10.6155 23.9395 10.2205 23.7887 9.8518L20.0865 11.3665ZM20.0121 10.9791C20.0133 10.8463 20.0409 10.7151 20.0933 10.5931L23.7685 12.1719C23.9257 11.8059 24.0085 11.4122 24.012 11.0139L20.0121 10.9791ZM20.0933 10.5931C20.1457 10.4711 20.2219 10.3607 20.3174 10.2685L23.0962 13.1457C23.3827 12.8689 23.6113 12.5379 23.7685 12.1719L20.0933 10.5931ZM20.2926 10.2929L15.9996 14.5859L18.828 17.4143L23.121 13.1213L20.2926 10.2929ZM15.9996 17.4143L20.2926 21.7073L23.121 18.8789L18.828 14.5859L15.9996 17.4143ZM20.2682 21.6825C20.0861 21.4939 19.9853 21.2413 19.9875 20.9791L23.9874 21.0139C23.9942 20.2273 23.6918 19.4695 23.1454 18.9037L20.2682 21.6825ZM19.9875 20.9791C19.9898 20.7169 20.095 20.4661 20.2804 20.2807L23.1088 23.1091C23.665 22.5529 23.9805 21.8004 23.9874 21.0139L19.9875 20.9791ZM20.2804 20.2807C20.4658 20.0953 20.7166 19.9901 20.9788 19.9878L21.0136 23.9877C21.8002 23.9808 22.5526 23.6653 23.1088 23.1091L20.2804 20.2807ZM20.9788 19.9878C21.241 19.9856 21.4936 20.0863 21.6822 20.2685L18.9034 23.1457C19.4692 23.6921 20.227 23.9945 21.0136 23.9877L20.9788 19.9878ZM21.707 20.2929L17.414 15.9999L14.5856 18.8283L18.8786 23.1213L21.707 20.2929ZM14.5856 15.9999L10.2926 20.2929L13.121 23.1213L17.414 18.8283L14.5856 15.9999ZM10.3174 20.2685C10.506 20.0863 10.7586 19.9856 11.0208 19.9878L10.986 23.9877C11.7726 23.9945 12.5304 23.6921 13.0962 23.1457L10.3174 20.2685ZM11.0208 19.9878C11.283 19.9901 11.5338 20.0953 11.7192 20.2807L8.89075 23.1091C9.44698 23.6653 10.1994 23.9808 10.986 23.9877L11.0208 19.9878ZM11.7192 20.2807C11.9046 20.4661 12.0098 20.7169 12.012 20.9791L8.01219 21.0139C8.01902 21.8005 8.33453 22.5529 8.89075 23.1091L11.7192 20.2807ZM12.012 20.9791C12.0143 21.2413 11.9135 21.4939 11.7314 21.6825L8.85421 18.9037C8.30774 19.4695 8.00535 20.2273 8.01219 21.0139L12.012 20.9791ZM11.707 21.7073L16 17.4143L13.1716 14.5859L8.87857 18.8789L11.707 21.7073ZM16 14.5859L11.707 10.2929L8.87857 13.1213L13.1716 17.4143L16 14.5859ZM11.7072 10.2931C11.8947 10.4806 12 10.7349 12 11.0001H8C8 11.7956 8.31595 12.5585 8.87836 13.1211L11.7072 10.2931ZM12 11.0001C12 11.2652 11.8947 11.5196 11.7072 11.7071L8.87836 8.87908C8.31595 9.44166 8 10.2046 8 11.0001H12Z" fill="#374151" mask="url(#path-2-inside-1_1460_268336)"/>
</svg>
