<svg width="24" height="24" viewBox="0 0 24 24" fill="none" xmlns="http://www.w3.org/2000/svg">
<path fill-rule="evenodd" clip-rule="evenodd" d="M7.20005 2.3999C6.56353 2.3999 5.95308 2.65276 5.50299 3.10285C5.05291 3.55293 4.80005 4.16338 4.80005 4.7999V19.1999C4.80005 19.8364 5.05291 20.4469 5.50299 20.897C5.95308 21.347 6.56353 21.5999 7.20005 21.5999H16.8C17.4366 21.5999 18.047 21.347 18.4971 20.897C18.9472 20.4469 19.2 19.8364 19.2 19.1999V8.8967C19.1999 8.26024 18.947 7.64989 18.4968 7.1999L14.4 3.1031C13.9501 2.65298 13.3397 2.40004 12.7032 2.3999H7.20005ZM9.60005 14.3999C9.60005 14.0816 9.47362 13.7764 9.24858 13.5514C9.02353 13.3263 8.71831 13.1999 8.40005 13.1999C8.08179 13.1999 7.77656 13.3263 7.55152 13.5514C7.32648 13.7764 7.20005 14.0816 7.20005 14.3999V17.9999C7.20005 18.3182 7.32648 18.6234 7.55152 18.8484C7.77656 19.0735 8.08179 19.1999 8.40005 19.1999C8.71831 19.1999 9.02353 19.0735 9.24858 18.8484C9.47362 18.6234 9.60005 18.3182 9.60005 17.9999V14.3999ZM12 10.7999C12.3183 10.7999 12.6235 10.9263 12.8486 11.1514C13.0736 11.3764 13.2 11.6816 13.2 11.9999V17.9999C13.2 18.3182 13.0736 18.6234 12.8486 18.8484C12.6235 19.0735 12.3183 19.1999 12 19.1999C11.6818 19.1999 11.3766 19.0735 11.1515 18.8484C10.9265 18.6234 10.8 18.3182 10.8 17.9999V11.9999C10.8 11.6816 10.9265 11.3764 11.1515 11.1514C11.3766 10.9263 11.6818 10.7999 12 10.7999ZM16.8 9.5999C16.8 9.28164 16.6736 8.97642 16.4486 8.75137C16.2235 8.52633 15.9183 8.3999 15.6 8.3999C15.2818 8.3999 14.9766 8.52633 14.7515 8.75137C14.5265 8.97642 14.4 9.28164 14.4 9.5999V17.9999C14.4 18.3182 14.5265 18.6234 14.7515 18.8484C14.9766 19.0735 15.2818 19.1999 15.6 19.1999C15.9183 19.1999 16.2235 19.0735 16.4486 18.8484C16.6736 18.6234 16.8 18.3182 16.8 17.9999V9.5999Z" fill="#9CA3AF"/>
</svg>
