<svg width="29" height="28" viewBox="0 0 29 28" fill="none" xmlns="http://www.w3.org/2000/svg">
<path d="M15.772 15.2728C15.4344 15.6104 14.9766 15.8 14.4992 15.8C14.0218 15.8 13.564 15.6104 13.2264 15.2728C12.8889 14.9352 12.6992 14.4774 12.6992 14C12.6992 13.5226 12.8889 13.0648 13.2264 12.7272C13.564 12.3897 14.0218 12.2 14.4992 12.2C14.9766 12.2 15.4344 12.3897 15.772 12.7272C16.1096 13.0648 16.2992 13.5226 16.2992 14C16.2992 14.4774 16.1096 14.9352 15.772 15.2728Z" fill="#F3F4F6" stroke="#9CA3AF" stroke-width="2"/>
<path fill-rule="evenodd" clip-rule="evenodd" d="M1.14062 14C2.92423 8.32021 8.23022 4.20001 14.4994 4.20001C20.7686 4.20001 26.0746 8.32021 27.8582 14C26.0746 19.6798 20.7686 23.8 14.4994 23.8C8.23022 23.8 2.92423 19.6798 1.14062 14ZM20.0994 14C20.0994 15.4852 19.5094 16.9096 18.4592 17.9598C17.409 19.01 15.9846 19.6 14.4994 19.6C13.0142 19.6 11.5898 19.01 10.5396 17.9598C9.48942 16.9096 8.89942 15.4852 8.89942 14C8.89942 12.5148 9.48942 11.0904 10.5396 10.0402C11.5898 8.99001 13.0142 8.40001 14.4994 8.40001C15.9846 8.40001 17.409 8.99001 18.4592 10.0402C19.5094 11.0904 20.0994 12.5148 20.0994 14V14Z" fill="url(#paint0_linear_1808_26382)"/>
<defs>
<linearGradient id="paint0_linear_1808_26382" x1="14.4994" y1="4.20001" x2="14.4994" y2="23.8" gradientUnits="userSpaceOnUse">
<stop stop-color="#48829F"/>
<stop offset="1" stop-color="#A189AE"/>
</linearGradient>
</defs>
</svg>
