<svg width="20" height="21" viewBox="0 0 20 21" fill="none" xmlns="http://www.w3.org/2000/svg">
<path fill-rule="evenodd" clip-rule="evenodd" d="M11.757 2.53399C12.034 2.60699 12.266 2.79597 12.395 3.05297C12.878 4.01997 13.239 4.607 13.602 5.083C13.97 5.565 14.358 5.95898 14.95 6.54998C16.316 7.91698 17 9.70999 17 11.5C17 13.29 16.316 15.083 14.95 16.45C12.216 19.183 7.784 19.183 5.05 16.45C3.684 15.083 3 13.29 3 11.5C3 9.70999 3.684 7.91698 5.05 6.54998C5.336 6.26398 5.766 6.17898 6.14 6.33398C6.514 6.48798 6.757 6.85301 6.757 7.25701C6.757 8.37701 6.827 9.23 7.155 9.911C7.335 10.285 7.61601 10.651 8.10001 10.978C8.21601 9.91702 8.428 8.624 8.714 7.398C8.939 6.432 9.21899 5.46799 9.55299 4.66399C9.71999 4.26099 9.909 3.87897 10.123 3.54797C10.331 3.22597 10.599 2.89902 10.945 2.66802C11.184 2.50902 11.48 2.45999 11.757 2.53399ZM12.121 15.621C10.95 16.793 9.05 16.793 7.879 15.621C7.293 15.036 7 14.268 7 13.5C7 13.5 7.879 14 9.5 14C9.5 13 10 9.99999 10.75 9.49999C11.25 10.5 11.536 10.793 12.121 11.379C12.707 11.964 13 12.732 13 13.5C13 14.268 12.707 15.036 12.121 15.621Z" fill="white"/>
</svg>
