<?xml version="1.0" encoding="UTF-8"?>
<svg xmlns="http://www.w3.org/2000/svg" width="123" height="32" viewBox="0 0 123 32" fill="none">
  <path d="M0 19.6322C0 11.8504 4.93376 7 11.7816 7C15.497 7 17.9375 8.33348 19.4756 10.1467L19.5809 7.47975H26V31.5202H19.5244L19.3139 28.6946C18.0391 30.3454 15.4406 32 11.6199 32C5.62193 32 0 27.8938 0 19.6322ZM19.1033 19.4736C19.1033 14.9442 16.3431 12.9157 13.2143 12.9157C10.0856 12.9157 7.32543 15.2087 7.32543 19.5264C7.32543 23.8442 9.87128 26.0314 13.1091 26.0314C16.0798 26.0314 19.107 24.2182 19.107 19.4736H19.1033Z" fill="#48829F"></path>
  <path d="M30 19.687C30 12.4389 34.2135 7 42.2135 7C50.7463 7 54 12.8619 54 19.313C54 20.1666 53.9471 20.805 53.7884 21.7114H37.3085C37.7884 24.9634 40.5621 26.2967 44.5602 26.2967C48.5583 26.2967 51.3321 25.0163 52.7189 24.2722V30.0284C51.0675 30.882 47.9726 32 43.3888 32C35.23 32 30.0038 27.8944 30.0038 19.687H30ZM46.8503 17.2357C46.7444 14.6258 45.0364 12.6504 42.2097 12.6504C39.5985 12.6504 37.675 14.4634 37.3576 17.2357H46.8503Z" fill="#48829F"></path>
  <path d="M59.3393 22.7708V13.0124H55V12.4795C56.8002 10.6125 63.9449 2.55864 65.8502 0H66.379V7.46805H72.8899V13.0162H66.379V21.8146C66.379 24.3732 66.8553 26.1873 70.0845 26.1873C71.6184 26.1873 72.8373 25.8132 74 25.2803V30.9871C72.9424 31.52 70.9846 32 68.4418 32C62.4597 32 59.3393 29.173 59.3393 22.7745V22.7708Z" fill="#48829F"></path>
  <path d="M77 19.6322C77 11.8504 81.744 7 88.3285 7C91.9009 7 94.2476 8.33348 95.7265 10.1467L95.8277 7.47975H102V31.5203H95.7735L95.571 28.6946C94.3452 30.3454 91.8467 32 88.173 32C82.4057 32 77 27.8938 77 19.6322ZM95.3685 19.4736C95.3685 14.9442 92.7145 12.9157 89.7061 12.9157C86.6977 12.9157 84.0437 15.2087 84.0437 19.5264C84.0437 23.8442 86.4916 26.0314 89.6049 26.0314C92.4614 26.0314 95.3721 24.2182 95.3721 19.4736H95.3685Z" fill="#48829F"></path>
  <path d="M107 30.6138V25.0163C107.993 25.6018 110.817 26.8822 113.484 26.8822C115.574 26.8822 116.571 25.9228 116.571 24.5366C116.571 20.3253 107.056 22.6179 107.056 14.2481C107.056 9.23599 110.557 7 115.682 7C118.453 7 120.599 7.63831 121.329 8.06512V13.6098C119.917 12.8619 118.087 12.065 116.152 12.065C114.322 12.065 113.536 12.9186 113.536 13.9837C113.536 17.6096 123 15.5285 123 24.0041C123 29.3863 119.235 32 113.955 32C111.08 32 108.36 31.3088 107 30.6138Z" fill="#48829F"></path>
</svg>
